<svg xmlns="http://www.w3.org/2000/svg" width="960" height="540" viewBox="0 0 960 540">
<rect width="100%" height="100%" fill="white"/>
<text x="480" y="28" text-anchor="middle" font-size="20">Validation loss by clean training time</text>
<line x1="70" y1="470" x2="890" y2="470" stroke="black"/>
<line x1="70" y1="70" x2="70" y2="470" stroke="black"/>
<text x="480" y="525" text-anchor="middle" font-size="14">Training seconds excluding evaluation and checkpointing</text>
<text x="18" y="270" text-anchor="middle" font-size="14" transform="rotate(-90 18 270)">Validation loss</text>
<polyline points="70.00,78.45 92.23,371.52 114.66,372.53 137.28,377.14 160.10,387.28 183.14,387.13 206.11,422.84 229.04,410.99 251.98,403.91 274.94,411.23 297.91,436.15" fill="none" stroke="#1f77b4" stroke-width="2"/>
<line x1="760" y1="55" x2="790" y2="55" stroke="#1f77b4" stroke-width="3"/>
<text x="800" y="60" font-size="13">Dense</text>
<polyline points="70.00,70.00 140.69,382.38 211.92,400.21 279.92,421.79 346.84,430.59 414.59,428.99 482.60,463.39 550.20,444.27 617.98,435.71 685.50,443.04 753.09,468.67" fill="none" stroke="#ff7f0e" stroke-width="2"/>
<line x1="760" y1="77" x2="790" y2="77" stroke="#ff7f0e" stroke-width="3"/>
<text x="800" y="82" font-size="13">Sheet Q64</text>
<polyline points="70.00,75.03 139.82,377.90 209.52,400.29 279.31,424.25 349.15,433.14 418.65,432.88 488.07,465.96 557.56,447.18 627.15,438.90 696.96,444.98 767.04,470.00" fill="none" stroke="#2ca02c" stroke-width="2"/>
<line x1="760" y1="99" x2="790" y2="99" stroke="#2ca02c" stroke-width="3"/>
<text x="800" y="104" font-size="13">Sheet Q128</text>
<polyline points="70.00,74.28 151.74,379.61 233.69,394.34 315.73,416.40 397.76,427.73 479.86,429.49 561.88,463.11 643.90,442.64 725.98,435.41 808.07,442.32 890.00,467.99" fill="none" stroke="#d62728" stroke-width="2"/>
<line x1="760" y1="121" x2="790" y2="121" stroke="#d62728" stroke-width="3"/>
<text x="800" y="126" font-size="13">Sheet Q256</text>
<text x="70" y="490" font-size="11">0</text>
<text x="890" y="490" text-anchor="end" font-size="11">997</text>
<text x="62" y="470" text-anchor="end" font-size="11">6.4549</text>
<text x="62" y="74" text-anchor="end" font-size="11">11.0513</text>
</svg>
